# xmcd
#
# Track frame offsets: 
#        150
#        26639
#        44659
#        60607
#        91045
#        117081
#        145842
#        166031
#
# Disc length: 2620 seconds
#
# Revision: 0
# Processed by: cddbd v1.5.2PL0 Copyright (c) Steve Scherf et al.
# Submitted via: ExactAudioCopy v0.99pb5
#
DISCID=600a3a08
DTITLE=Billy Jenkins - I am A Man From Lewisham
DYEAR=2010
DGENRE=Blues
TTITLE0=I Am A Man From Lewisham
TTITLE1=On Catford) Broadway
TTITLE2=Francis Drake Bowls Club
TTITLE3=Deptford Market
TTITLE4=Church Of The Ford Transit Mini Bus
TTITLE5=Terraced Fast Food
TTITLE6=Clock Tower Of Power
TTITLE7=Throw Them Blues In The Recycling Bin
EXTD=
EXTT0=
EXTT1=
EXTT2=
EXTT3=
EXTT4=
EXTT5=
EXTT6=
EXTT7=
PLAYORDER=
